# xmcd CD database file
# Copyright (C) 1996 Ti Kan
#
# Track frame offsets:
#	183
#	21558
#	45033
#	65658
#	85533
#	107583
#	131208
#	153033
# Disc length: 2316 seconds
#
# Revision: 1
# Processed by: cddbd v1.4PL0 Copyright (c) Steve Scherf et al.
# Submitted via: CDCOPY 4.744
#
DISCID=5a090a08
DTITLE=Basi - Basi
DYEAR=1900
DGENRE=
TTITLE0=All at once
TTITLE1=The greatest love of all
TTITLE2=I'm your baby tonight
TTITLE3=You're still my man
TTITLE4=One moment in time
TTITLE5=Didn't we almost have it all
TTITLE6=So emotional
TTITLE7=Where do broken hearts go
EXTD=
EXTT0=
EXTT1=
EXTT2=
EXTT3=
EXTT4=
EXTT5=
EXTT6=
EXTT7=
PLAYORDER=
